<?xml version="1.0" standalone="no"?><!DOCTYPE svg PUBLIC "-//W3C//DTD SVG 1.1//EN" "http://www.w3.org/Graphics/SVG/1.1/DTD/svg11.dtd"><svg t="1542350608738" class="icon" style="" viewBox="0 0 1793 1024" version="1.1" xmlns="http://www.w3.org/2000/svg" p-id="3977" xmlns:xlink="http://www.w3.org/1999/xlink" width="350.1953125" height="200"><defs><style type="text/css"></style></defs><path d="M1456 352c-61.568 0-119.136 16.928-168.832 45.952l-217.632-333.952 307.168 0c-0.416 15.936-4.128 42.592-22.368 63.552-18.784 21.536-49.152 32.448-90.336 32.448-8.832 0-16 7.168-16 16s7.168 16 16 16c50.848 0 89.344-14.592 114.432-43.392 37.216-42.752 29.76-100.352 29.408-102.784-1.088-7.904-7.84-13.824-15.84-13.824l-352 0c-5.888 0-11.296 3.232-14.048 8.384-2.816 5.152-2.56 11.424 0.672 16.384l90.592 139.008-507.68 0-98.656-163.776 177.12 0c8.832 0 16-7.168 16-16s-7.168-16-16-16l-288 0c-8.832 0-16 7.168-16 16s7.168 16 16 16l74.048 0c0.32 0.736 0.384 1.536 0.8 2.24l109.184 181.184-97.728 172.48c-45.28-22.752-96.224-35.904-150.304-35.904-185.28 0-336 150.72-336 336s150.72 336 336 336c178.816 0 325.024-140.512 333.44-320l354.56 0c0.928 18.528-3.072 43.776-20.608 63.648-18.944 21.472-49.696 32.352-91.392 32.352-8.832 0-16 7.168-16 16s7.168 16 16 16c51.456 0 90.368-14.624 115.648-43.456 36.544-41.728 29.664-97.152 29.376-99.488-1.056-7.968-7.84-13.92-15.872-13.92l-125.696 0 225.504-442.88 119.36 183.168c-84.8 61.024-140.32 160.32-140.32 272.576 0 185.28 150.72 336 336 336s336-150.72 336-336-150.72-336-336-336zM1107.36 224l-219.136 434.176-259.392-434.176 478.528 0zM602.976 246.88l258.08 428.256-189.696 0c-4.352-114.4-65.984-214.144-157.184-271.488l88.8-156.768zM639.36 675.136l-279.008 0 138.048-243.68c81.536 51.808 136.608 141.184 140.96 243.68zM336 992c-167.616 0-304-136.384-304-304s136.384-304 304-304c48.32 0 93.888 11.648 134.528 31.776l-151.552 267.456c-2.816 4.928-2.784 11.008 0.096 15.936 2.848 4.896 8.128 7.936 13.824 4.8l306.144 0c-9.952 161.856-141.856 288.032-303.04 288.032zM1456 992c-167.616 0-304-136.384-304-304 0-101.024 49.728-190.464 125.824-245.76l167.904 257.632c3.072 4.672 8.192 7.264 13.408 7.264 3.008 0 6.016-0.832 8.736-2.592 7.36-4.8 9.472-14.752 4.672-22.144l-167.904-257.632c44.64-25.792 96.224-40.768 151.36-40.768 167.616 0 304 136.384 304 304s-136.384 304-304 304z" p-id="3978"></path></svg>