<?xml version="1.0" standalone="no"?><!DOCTYPE svg PUBLIC "-//W3C//DTD SVG 1.1//EN" "http://www.w3.org/Graphics/SVG/1.1/DTD/svg11.dtd"><svg t="1542351042435" class="icon" style="" viewBox="0 0 1024 1024" version="1.1" xmlns="http://www.w3.org/2000/svg" p-id="9758" xmlns:xlink="http://www.w3.org/1999/xlink" width="200" height="200"><defs><style type="text/css"></style></defs><path d="M389.504 115.456 319.872 115.456c-51.52 0-64 43.84-64 64l0 704 192 0 0-704C447.872 127.232 411.008 115.456 389.504 115.456zM127.872 307.456l-64 0C2.368 311.424 4.032 335.232 0 371.456l0 512 194.752 0-2.88-512C193.856 337.28 181.376 307.456 127.872 307.456zM639.872 563.456l-64 0c-47.488 0-64 43.904-64 64l0 256 192 0 0-256C703.872 585.344 677.376 563.456 639.872 563.456zM895.872 755.456l-64 0c-21.504 0-65.984 13.888-64 64l-2.752 64 194.752 0 0-64C955.904 779.328 939.392 755.456 895.872 755.456z" p-id="9759"></path></svg>