<?xml version="1.0" standalone="no"?><!DOCTYPE svg PUBLIC "-//W3C//DTD SVG 1.1//EN" "http://www.w3.org/Graphics/SVG/1.1/DTD/svg11.dtd"><svg t="1542350970941" class="icon" style="" viewBox="0 0 1024 1024" version="1.1" xmlns="http://www.w3.org/2000/svg" p-id="5238" xmlns:xlink="http://www.w3.org/1999/xlink" width="200" height="200"><defs><style type="text/css"></style></defs><path d="M725.74976 422.87616c-49.15712 0-89.03168 40.06912-89.03168 89.22112 0 49.37728 39.87456 89.25184 89.03168 89.25184 49.1776 0 89.05216-39.87456 89.05216-89.25184 0-49.152-39.86944-89.22112-89.05216-89.22112z m-213.78048 213.79072c-49.16736 0-89.02656 39.84384-89.02656 89.03168 0 49.152 39.8592 89.02656 89.02656 89.02656 49.14176 0 89.0112-39.87456 89.0112-89.02656 0-49.18784-39.86944-89.03168-89.0112-89.03168z m-35.52768-124.5696c0 19.62496 15.8976 35.31776 35.52768 35.31776 19.84 0 35.72736-15.68768 35.72736-35.31776 0-19.4048-15.88736-35.31776-35.72736-35.31776-19.62496 0-35.52768 15.91296-35.52768 35.31776z m35.52768-302.39232c-49.16736 0-89.02656 39.68-89.02656 88.832s39.8592 89.02656 89.02656 89.02656c49.14176 0 89.0112-39.87456 89.0112-89.02656s-39.86944-88.832-89.0112-88.832zM298.17856 422.87616c-49.16736 0-89.02656 40.06912-89.02656 89.22112 0 49.37728 39.8592 89.25184 89.02656 89.25184 49.16736 0 89.02656-39.87456 89.02656-89.25184 0-49.152-39.8592-89.22112-89.02656-89.22112z m444.30336 427.97568h94.19776c17.152 0 31.18592 15.7184 31.18592 35.31776 0 19.62496-14.03392 35.54304-31.18592 35.54304h-311.69024c-1.24928 0-2.69824-0.19968-3.93728-0.42496-2.89792 0-5.78048 0.42496-8.88832 0.42496-226.176 0-409.6-183.424-409.6-409.61536s183.424-409.58464 409.6-409.58464 409.6 183.39328 409.6 409.58464c0.00512 140.8768-71.02464 265.02656-179.28192 338.75456" p-id="5239"></path></svg>