<?xml version="1.0" standalone="no"?><!DOCTYPE svg PUBLIC "-//W3C//DTD SVG 1.1//EN" "http://www.w3.org/Graphics/SVG/1.1/DTD/svg11.dtd"><svg t="1542348557598" class="icon" style="" viewBox="0 0 1024 1024" version="1.1" xmlns="http://www.w3.org/2000/svg" p-id="1398" xmlns:xlink="http://www.w3.org/1999/xlink" width="200" height="200"><defs><style type="text/css"></style></defs><path d="M558.245161 551.63871C554.941935 548.335484 551.63871 545.032258 545.032258 541.729032 538.425806 538.425806 535.122581 535.122581 528.516129 531.819355L528.516129 634.219355C541.729032 630.916129 551.63871 624.309677 558.245161 614.4 564.851613 604.490323 568.154839 594.580645 568.154839 581.367742 568.154839 574.76129 568.154839 568.154839 564.851613 561.548387 564.851613 558.245161 561.548387 554.941935 558.245161 551.63871L558.245161 551.63871Z" fill="#f4ea2a" p-id="1399"></path><path d="M439.329032 409.6C439.329032 422.812903 442.632258 432.722581 452.541935 442.632258 462.451613 449.23871 472.36129 455.845161 485.574194 462.451613L485.574194 363.354839C472.36129 366.658065 459.148387 373.264516 452.541935 379.870968 442.632258 389.780645 439.329032 399.690323 439.329032 409.6L439.329032 409.6Z" fill="#f4ea2a" p-id="1400"></path><path d="M512 13.212903C237.832258 13.212903 16.516129 234.529032 16.516129 508.696774 16.516129 782.864516 237.832258 1004.180645 512 1004.180645 786.167742 1004.180645 1007.483871 782.864516 1007.483871 508.696774 1007.483871 234.529032 786.167742 13.212903 512 13.212903L512 13.212903ZM624.309677 617.703226C621.006452 630.916129 614.4 640.825806 604.490323 647.432258 594.580645 657.341935 584.670968 663.948387 571.458065 670.554839 558.245161 677.16129 545.032258 680.464516 528.516129 683.767742L528.516129 759.741935 485.574194 759.741935 485.574194 683.767742C475.664516 683.767742 465.754839 683.767742 455.845161 680.464516 445.935484 680.464516 436.025806 677.16129 429.419355 673.858065 419.509677 670.554839 412.903226 667.251613 406.296774 663.948387 399.690323 660.645161 393.083871 657.341935 386.477419 654.03871L386.477419 594.580645C393.083871 597.883871 399.690323 604.490323 406.296774 607.793548 412.903226 611.096774 422.812903 617.703226 432.722581 621.006452 442.632258 624.309677 449.23871 627.612903 459.148387 630.916129 469.058065 634.219355 475.664516 634.219355 485.574194 634.219355L485.574194 512C469.058065 505.393548 455.845161 498.787097 442.632258 495.483871 429.419355 488.877419 419.509677 482.270968 409.6 472.36129 399.690323 465.754839 393.083871 455.845161 389.780645 445.935484 386.477419 436.025806 383.174194 422.812903 383.174194 409.6 383.174194 396.387097 386.477419 383.174194 389.780645 373.264516 396.387097 363.354839 402.993548 353.445161 412.903226 343.535484 422.812903 336.929032 432.722581 330.322581 445.935484 323.716129 459.148387 317.109677 472.36129 313.806452 488.877419 313.806452L488.877419 244.43871 531.819355 244.43871 531.819355 313.806452C545.032258 313.806452 558.245161 317.109677 571.458065 320.412903 584.670968 323.716129 597.883871 327.019355 611.096774 333.625806L611.096774 389.780645C604.490323 386.477419 601.187097 386.477419 594.580645 383.174194 587.974194 379.870968 581.367742 379.870968 574.76129 376.567742 568.154839 373.264516 561.548387 373.264516 554.941935 369.96129 548.335484 366.658065 541.729032 366.658065 535.122581 366.658065L535.122581 478.967742C548.335484 485.574194 561.548387 492.180645 574.76129 498.787097 587.974194 505.393548 597.883871 512 607.793548 521.909677 617.703226 531.819355 624.309677 538.425806 630.916129 551.63871 637.522581 561.548387 637.522581 574.76129 637.522581 587.974194 630.916129 594.580645 627.612903 604.490323 624.309677 617.703226L624.309677 617.703226Z" fill="#f4ea2a" p-id="1401"></path></svg>