<?xml version="1.0" standalone="no"?><!DOCTYPE svg PUBLIC "-//W3C//DTD SVG 1.1//EN" "http://www.w3.org/Graphics/SVG/1.1/DTD/svg11.dtd"><svg t="1542617290264" class="icon" style="" viewBox="0 0 1024 1024" version="1.1" xmlns="http://www.w3.org/2000/svg" p-id="2861" xmlns:xlink="http://www.w3.org/1999/xlink" width="200" height="200"><defs><style type="text/css"></style></defs><path d="M528.472672 47.509037c-247.254314 0-447.685205 200.452381-447.685205 447.684182 0 247.233847 200.429869 447.684182 447.685205 447.684182 247.232824 0 447.683159-200.451358 447.683159-447.682136C976.15583 247.963465 775.704472 47.509037 528.472672 47.509037zM731.985762 576.599274 487.769644 576.599274c-22.472827 0-40.702004-18.231223-40.702004-40.704051L447.06764 291.681152c0-22.471804 18.2302-40.659025 40.702004-40.659025 22.470781 0 40.703027 18.187221 40.703027 40.659025l0 203.514113 203.51309 0c22.470781 0 40.656979 18.229177 40.656979 40.699957C772.64274 558.36805 754.456542 576.599274 731.985762 576.599274z" p-id="2862"></path></svg>