<?xml version="1.0" standalone="no"?><!DOCTYPE svg PUBLIC "-//W3C//DTD SVG 1.1//EN" "http://www.w3.org/Graphics/SVG/1.1/DTD/svg11.dtd"><svg t="1542597428562" class="icon" style="" viewBox="0 0 1024 1024" version="1.1" xmlns="http://www.w3.org/2000/svg" p-id="1739" xmlns:xlink="http://www.w3.org/1999/xlink" width="200" height="200"><defs><style type="text/css"></style></defs><path d="M509.304475 694.646778c-97.937409 0-182.497026-80.16691-182.497026-182.497026S406.874525 329.552891 509.304475 329.552891s182.497026 80.16691 182.497026 182.497026S607.241884 694.646778 509.304475 694.646778zM892.16886 561.068539c0-17.770498 4.492542-31.148289 4.492542-49.018621s0-35.640831-4.492542-49.018621l106.822658-84.559618c8.885249-8.885249 13.377791-22.26304 4.492542-31.148289l-102.42995-178.104319c-4.492542-13.377791-22.26304-13.377791-31.148289-13.377791l-129.085698 53.411329c-26.755582-22.26304-57.903871-35.640831-89.05216-49.018621l-17.770498-137.970947c0-13.377791-13.377791-22.26304-26.755582-22.26304L406.874525 0c-13.377791 0-22.26304 8.885249-26.755582 22.26304l-17.770498 133.578239c-31.148289 13.377791-62.296578 31.148289-89.05216 49.018621l-129.085698-53.411329c-13.377791-4.492542-26.755582 0-31.148289 13.377791L10.732183 342.930681c-8.885249 13.377791-4.492542 26.755582 4.492542 35.640831l106.822658 84.559618c0 17.770498-4.492542 35.640831-4.492542 49.018621 0 13.377791 0 35.640831 4.492542 49.018621l-106.822658 84.559618c-8.885249 8.885249-13.377791 22.26304-4.492542 31.148289l102.42995 178.104319c4.492542 13.377791 22.26304 13.377791 31.148289 13.377791L273.39612 814.847226c26.755582 22.26304 57.903871 35.640831 89.05216 49.018621L380.218777 1001.73696c0 13.377791 13.377791 22.26304 26.755582 22.26304l204.760066 0c13.377791 0 22.26304-8.885249 26.755582-22.26304l17.770498-137.970947c31.148289-13.377791 62.296578-31.148289 89.05216-49.018621l129.085698 53.411329c13.377791 4.492542 26.755582 0 31.148289-13.377791l102.42995-178.104319c4.492542-13.377791 4.492542-26.755582-4.492542-31.148289L892.16886 561.068539z" p-id="1740" fill="#1296db"></path></svg>